<?xml version="1.0" encoding="utf-8"?>
<!-- Generator: Adobe Illustrator 27.5.0, SVG Export Plug-In . SVG Version: 6.00 Build 0)  -->
<svg version="1.1" id="Слой_1" xmlns="http://www.w3.org/2000/svg" xmlns:xlink="http://www.w3.org/1999/xlink" x="0px" y="0px"
	 viewBox="0 0 3200 2000" style="enable-background:new 0 0 3200 2000;" xml:space="preserve">
<rect style="fill:#FFFFFF;" width="3200" height="2000"/>
<g>
	<path style="fill:#EBF3FA;" d="M376.913,1810.912c0,0-197.992-243.63-100.128-714.201
		c61.555-295.985,320.121-442.619,666.743-428.619c119.15,4.813,313.012-138.601,591.553-314.765
		c595.812-376.824,1457.658-216.785,1251.388,630.818c-99.819,410.179,313.976,416.751,108.318,826.767H376.913z"/>
	<path style="fill:#DFEBFD;" d="M2580.887,524.465c-0.907-59.826-99.803-66.384-99.803-66.384s-89.066,81.611-108.315,79.193
		c-19.249-2.418,62.524-84.645,62.524-84.645c-35.254-12.702-138.646,8.15-138.646,8.15s-23.266,115.748-41.327,108.665
		c-18.062-7.082,25.829-101.438,25.829-101.438c-37.65,1.587-80.688,34.082-80.688,34.082
		c-57.73,56.068,17.246,127.305,17.246,127.305s-8.929,39.939-44.992,79.177l-0.002,0.001c0,0-7.663,6.988-16.914,19.829
		l9.536,2.428c1.431-2.359,2.918-4.612,4.473-6.743c0.005-0.018,0.015-0.029,0.029-0.038c0.022-0.031,0.046-0.061,0.068-0.092
		c1.028-1.308,2.501-3.165,4.321-5.422c0.003-0.002,0.005-0.005,0.008-0.008c0.001-0.006,0.007-0.005,0.009-0.011
		c4.365-4.962,7.407-8.674,9.426-11.398c0.007-0.008,0.013-0.017,0.017-0.026c13.289-15.68,31.805-35.805,41.438-38.561
		c0,0-0.677-1.753-0.927-4.893c0.296,1.56,0.604,3.188,0.927,4.893c7.417,39.135,87.549,65.747,135.396,67.998
		c47.848,2.251,31.292-15.621,12.107-42.672c-19.185-27.05-71.884-34.626-84.963-46.648c-13.079-12.021,11.152-14.542,40.873-4.491
		c29.721,10.051,37.16,44.226,84.942,61.359s108.548-65.477,108.548-65.477c-36.485,1.884-92.365-32.21-91.728-44.463
		c0.637-12.254,90.118,11.773,105.001,11.838C2550.183,606.039,2581.793,584.29,2580.887,524.465z"/>
	<path style="fill:#CDE0FB;" d="M2666.452,1109.923c46.547-78.712-77.142-166.161-77.142-166.161s-181.217,35.332-204.38,16.823
		c-23.164-18.509,149.037-60.461,149.037-60.461c-35.824-44.683-187.243-99.987-187.243-99.987s-122.672,132.329-140.566,108.687
		c-17.896-23.642,114.598-111.629,114.598-111.629c-50.348-27.969-132.376-19.943-132.376-19.943
		c-119.99,27.033-79.082,179.714-79.082,179.714s-43.502,44.942-121.818,67.32h-0.003c0,0-15.565,2.997-37.869,12.354l10.494,10.773
		c3.746-1.934,7.483-3.684,11.211-5.222c0.021-0.021,0.041-0.026,0.068-0.026c0.054-0.022,0.107-0.043,0.162-0.065
		c2.384-0.884,5.785-2.131,9.959-3.62c0.005-0.001,0.011-0.003,0.016-0.005c0.007-0.007,0.014,0,0.021-0.007
		c9.649-2.985,16.575-5.397,21.382-7.338c0.016-0.006,0.029-0.013,0.042-0.021c29.832-9.839,70.024-21.302,84.782-17.21
		c0,0,0.516-2.825,2.695-7.119c-0.859,2.271-1.756,4.638-2.695,7.119c-21.554,56.934,61.677,155.555,122.255,196.662
		c60.578,41.106,53.255,4.6,49.826-45.969c-3.428-50.568-66.083-102.488-73.542-128.594c-7.46-26.105,26.14-10.06,56.865,26.754
		c30.726,36.814,13.158,87.299,61.779,147.754c48.62,60.456,193.739,1.243,193.739,1.243
		c-49.064-26.651-94.709-115.677-84.103-131.142c10.605-15.466,108.086,87.243,127.435,99.201
		C2561.348,1191.767,2619.906,1188.635,2666.452,1109.923z"/>
	<path style="fill:#CDE0FB;" d="M992.951,817.16c27.6-56.679,124.895-18.742,124.895-18.742s48.515,117.674,67.962,123.968
		c19.448,6.294-21.833-108.708-21.833-108.708c39.315,3.635,128.651,69.735,128.651,69.735s-29.526,120.842-9.127,122.155
		c20.399,1.314,20.685-108.333,20.685-108.333c35.216,18.34,61.76,68.579,61.76,68.579c30.03,79.298-73.346,113.765-73.346,113.765
		s-9.329,42.1,7.547,95.654c0,0.001,0.001,0.002,0.001,0.002s4.189,10.094,7.278,26.479l-10.185-1.944
		c-0.311-2.891-0.723-5.705-1.254-8.434c0.003-0.02,0-0.033-0.011-0.049c-0.007-0.04-0.016-0.079-0.023-0.118
		c-0.397-1.707-0.973-4.138-1.701-7.104c-0.001-0.004-0.002-0.008-0.003-0.012c0.001-0.006-0.005-0.008-0.004-0.014
		c-1.948-6.686-3.191-11.586-3.9-15.089c-0.003-0.011-0.004-0.021-0.005-0.032c-5.672-20.899-14.346-48.376-22.306-55.313
		c0,0,1.43-1.37,3.071-4.254c-0.979,1.356-2,2.771-3.071,4.254c-24.566,34.028-112.919,23.611-159.58,4.377
		c-46.661-19.234-22.877-28.89,7.517-46.128c30.394-17.237,84.064-0.916,101.916-6.542c17.852-5.625-4.143-18.859-36.993-22.551
		c-32.851-3.691-55.22,25.594-108.47,20.589c-53.249-5.006-74.313-110.985-74.313-110.985
		c33.971,18.102,102.526,10.542,107.394-1.435c4.868-11.977-91.251-29.039-105.48-35.627
		C985.794,908.717,965.351,873.839,992.951,817.16z"/>
	<g>
		<g>
			<path style="opacity:0.5;fill:#C0D8FB;" d="M2591.281,1798.623l-105.213-0.032l-55.653-0.015
				c-21.598-0.01-39.26-17.689-39.258-39.298l0.123-388.775c0.001-21.599,17.673-39.271,39.279-39.26l49.354,0.017l111.511,0.03
				c21.599,0.001,39.261,17.681,39.259,39.289l-0.113,388.776C2630.561,1780.953,2612.889,1798.625,2591.281,1798.623z"/>
			<path style="fill:#AFCDFB;" d="M2613.594,1688.402l-2.791-20.462l0,0l-2.793-20.47c-0.711-5.218-3.5-9.68-7.412-12.652
				s-8.949-4.465-14.175-3.752c-0.578,0.078-1.143,0.192-1.7,0.32c1.913-2.768,3-5.89,3.296-9.063
				c3.552,8.518,12.89,13.497,22.138,11.284c10.26-2.455,16.64-12.849,14.186-23.107l-4.807-20.085l0,0l-4.807-20.092
				c-1.227-5.122-4.443-9.284-8.63-11.855c-4.188-2.57-9.349-3.557-14.478-2.329c-10.26,2.455-16.638,12.856-14.186,23.107
				l7.242,30.267c-1.097-1.577-2.446-3.016-4.05-4.242c-3.305-2.53-7.188-3.792-11.071-3.901c1.899-2.456,3.154-5.316,3.703-8.305
				c0.718-3.908,0.217-8.028-1.576-11.761c2.17-7.182,0.005-15.314-6.112-20.369l-31.843-26.317
				c-8.131-6.721-20.271-5.567-26.992,2.563c-6.215,7.521-5.682,18.463,0.864,25.382c-1.689-0.007-3.403,0.19-5.107,0.657
				l-19.927,5.452l0,0l-19.919,5.45c-6.934,1.896-11.94,7.422-13.551,13.969l-2.093-5.009l0,0l-7.959-19.056
				c-4.066-9.733-15.348-14.367-25.081-10.301c-9.733,4.065-14.366,15.347-10.301,25.08l7.96,19.056l0,0l5.101,12.213
				c-6.759,2.692-11.722,9.125-12.111,16.837l-1.043,20.625l0,0l-1.044,20.633c-0.266,5.26,1.649,10.16,4.943,13.806
				c3.295,3.646,7.969,6.044,13.236,6.311c2.25,0.114,4.425-0.191,6.471-0.811c-1.984,3.984-2.535,8.583-1.521,12.957
				c-3.535,2.039-6.459,5.19-8.129,9.232l-7.888,19.086l0,0l-7.892,19.093c-2.012,4.867-1.848,10.125,0.036,14.663
				c1.885,4.538,5.485,8.363,10.36,10.378c7.604,3.144,16.117,0.968,21.412-4.758c1.25,2.953,3.241,5.634,5.958,7.713
				c8.376,6.412,20.466,4.807,26.878-3.57l12.552-16.398l0,0l12.558-16.404c1.704-2.227,2.824-4.723,3.417-7.303
				c4.366,0.439,8.9-0.592,12.775-3.265l3.29-2.269l-4.555,5.951l0,0l-12.554,16.398c-6.411,8.376-4.806,20.466,3.571,26.877
				c8.376,6.412,20.466,4.806,26.877-3.57l12.553-16.398l0,0l12.558-16.405c0.161-0.211,0.296-0.435,0.447-0.649
				c1.012,1.632,2.255,3.082,3.675,4.322l-4.471,5.84c-6.412,8.377-4.805,20.466,3.57,26.878c8.377,6.412,20.467,4.806,26.878-3.57
				l25.11-32.804c3.201-4.182,4.401-9.304,3.755-14.175c-0.647-4.871-3.138-9.497-7.326-12.702c-1.432-1.097-2.978-1.94-4.58-2.574
				c0.233-0.022,0.464-0.027,0.698-0.059C2607.642,1708.564,2615.02,1698.854,2613.594,1688.402z M2440.821,1670.106l0.356-7.036
				c1.21,2.045,2.808,3.899,4.803,5.427c0.748,0.573,1.535,1.06,2.336,1.505l-8.783,6.058
				C2440.26,1674.199,2440.716,1672.203,2440.821,1670.106z M2570.018,1652.653l3.754,27.519c-1.625-3.306-4.145-6.022-7.187-7.891
				c-3.709-2.276-8.181-3.302-12.718-2.656c1.962-1.195,3.747-2.746,5.222-4.673l10.777-14.08
				C2569.892,1651.463,2569.937,1652.057,2570.018,1652.653z M2526.41,1578.315l4.832,3.993l-4.973,3.429
				C2526.792,1583.347,2526.864,1580.834,2526.41,1578.315z M2530.578,1639.113c-0.491-2.982-1.671-5.759-3.396-8.138
				c1.428-0.536,2.816-1.23,4.125-2.133l15.11-10.421L2530.578,1639.113z M2543.118,1674.989c-4.049-3.383-9.304-4.926-14.452-4.36
				l0.407-5.162c0.913,1.111,1.949,2.146,3.138,3.056c4.245,3.25,9.443,4.432,14.373,3.725
				C2545.313,1673.027,2544.159,1673.954,2543.118,1674.989z M2504.494,1602.427c-4.211,6.343-4.425,14.891,0.146,21.519
				c0.083,0.121,0.181,0.228,0.267,0.347c-1.395,0.532-2.718,1.214-3.941,2.044c0.87-2.73,1.128-5.599,0.758-8.388
				c-0.647-4.871-3.138-9.497-7.326-12.703c-0.019-0.014-0.039-0.025-0.058-0.04L2504.494,1602.427z M2485.41,1648.527l7.395-9.66
				c-0.105,0.596-0.188,1.2-0.236,1.815l-1.402,17.736c-2.77-2.503-6.166-4.097-9.738-4.688L2485.41,1648.527L2485.41,1648.527z
				 M2450.792,1729.563l2.171-5.251c1.584-3.832,1.805-7.894,0.919-11.662c0.438-0.254,0.876-0.511,1.301-0.803l34.007-23.454
				c0.219-0.15,0.415-0.321,0.626-0.48c0.459,1.865,1.194,3.628,2.161,5.246l-6.054,4.176c-4.074,2.811-6.7,6.947-7.745,11.439
				c-6.39-0.621-12.96,1.943-17.126,7.386L2450.792,1729.563z M2541.002,1705.928l1.061,4.436c-1.71-0.767-3.498-1.267-5.311-1.505
				L2541.002,1705.928z M2581.5,1710.405l-1.478-6.177l0,0l-0.282-1.176c2.078,2.547,4.775,4.538,7.834,5.754
				C2585.484,1709.011,2583.428,1709.536,2581.5,1710.405z M2465.365,1611.63l-10.403,13.591l0,0l-12.553,16.398
				c-0.058,0.075-0.103,0.155-0.159,0.231l0.658-13.002c0.017-0.333,0-0.66-0.001-0.991c0.591-0.181,1.178-0.389,1.759-0.631
				c7.807-3.261,12.318-11.169,11.707-19.189C2459,1609.961,2462.092,1611.218,2465.365,1611.63z"/>
			<path style="opacity:0.5;fill:#AFCDFB;" d="M2486.068,1798.591l-55.653-0.015c-21.598-0.01-39.26-17.689-39.258-39.298
				l0.123-388.775c0.001-21.599,17.673-39.271,39.279-39.26l49.354,0.017c4.074,6.986,6.448,15.339,6.442,24.285l-0.13,439.122
				C2486.227,1795.992,2486.175,1797.3,2486.068,1798.591z"/>
			<path style="fill:#F99746;" d="M2628.104,1349.62l-149.427-0.046l-84.808-0.031c-4.206,0.007-7.635-3.436-7.633-7.64l0.01-36.611
				c0.001-4.196,3.436-7.635,7.64-7.633l84.688,0.024c0.01,0.001,0.01,0.001,0.019,0.003l149.529,0.041
				c4.196,0.001,7.635,3.436,7.632,7.64l-0.009,36.612C2635.742,1346.184,2632.309,1349.623,2628.104,1349.62z"/>
			<path style="fill:#EF7E29;" d="M2478.677,1349.574l-84.808-0.031c-4.206,0.007-7.635-3.436-7.633-7.64l0.01-36.611
				c0.001-4.196,3.436-7.635,7.64-7.633l84.688,0.024c0.01,0.001,0.01,0.001,0.019,0.003c4.185,0.009,7.615,3.441,7.614,7.637
				l-0.01,36.612C2486.19,1346.102,2482.825,1349.514,2478.677,1349.574z"/>
		</g>
	</g>
	<g>
		<rect x="1193.559" y="308.699" style="fill:#ABDDDA;" width="1109.663" height="1490.825"/>
		<rect x="1258.631" y="357.017" style="fill:#FFFFFF;" width="991.702" height="1375.621"/>
		<path style="fill:#F99746;" d="M1552.233,308.699v50.5c0,27.89,22.589,50.5,50.454,50.5h271.008
			c27.865,0,50.454-22.61,50.454-50.5v-50.5H1552.233z"/>
	</g>
	<g>
		<g>
			<path style="fill:#ABDDDA;" d="M1470.113,616.938h-14.082v-65.198h14.082V616.938z"/>
			<path style="fill:#ABDDDA;" d="M1548.352,616.938h-14.082l-27.413-42.898v42.898h-14.082v-65.198h14.082l27.459,42.988v-42.988
				h14.035V616.938z"/>
			<path style="fill:#ABDDDA;" d="M1605.703,599.832c0-1.134-0.173-2.157-0.517-3.067c-0.345-0.911-1.009-1.754-1.995-2.53
				c-0.986-0.776-2.347-1.538-4.083-2.284c-1.737-0.746-3.983-1.537-6.736-2.374c-3.129-0.954-6.079-2.029-8.848-3.224
				c-2.769-1.194-5.194-2.604-7.275-4.232c-2.082-1.626-3.725-3.5-4.928-5.62c-1.206-2.119-1.808-4.597-1.808-7.434
				c0-2.716,0.618-5.201,1.854-7.456c1.236-2.254,2.973-4.171,5.21-5.754c2.237-1.582,4.897-2.813,7.98-3.694
				c3.082-0.88,6.47-1.32,10.163-1.32c3.785,0,7.228,0.5,10.326,1.5c3.099,1,5.742,2.396,7.934,4.187
				c2.189,1.79,3.88,3.918,5.069,6.381c1.188,2.462,1.783,5.157,1.783,8.082h-14.081c0-1.373-0.228-2.642-0.681-3.806
				c-0.454-1.165-1.15-2.164-2.089-3c-0.939-0.835-2.113-1.485-3.521-1.948c-1.409-0.462-3.067-0.694-4.976-0.694
				c-1.847,0-3.45,0.195-4.812,0.583c-1.361,0.388-2.488,0.925-3.38,1.612c-0.892,0.687-1.565,1.493-2.018,2.419
				c-0.454,0.925-0.681,1.911-0.681,2.955c0,2.149,1.15,3.949,3.45,5.396c2.3,1.448,5.672,2.798,10.115,4.053
				c3.724,1.104,7.002,2.328,9.835,3.672c2.831,1.343,5.193,2.866,7.087,4.567s3.325,3.612,4.296,5.731
				c0.969,2.12,1.454,4.523,1.454,7.209c0,2.866-0.587,5.418-1.76,7.657c-1.174,2.239-2.84,4.128-4.999,5.665
				s-4.764,2.717-7.815,3.538c-3.052,0.82-6.454,1.231-10.209,1.231c-2.253,0-4.506-0.187-6.759-0.56
				c-2.253-0.373-4.405-0.947-6.454-1.724c-2.05-0.776-3.951-1.746-5.703-2.91c-1.753-1.165-3.279-2.537-4.577-4.12
				c-1.299-1.582-2.316-3.381-3.051-5.396c-0.736-2.015-1.104-4.246-1.104-6.694h14.129c0,1.97,0.329,3.643,0.986,5.016
				c0.657,1.373,1.572,2.485,2.746,3.336c1.173,0.851,2.589,1.471,4.248,1.858c1.658,0.388,3.504,0.582,5.539,0.582
				c1.814,0,3.395-0.187,4.741-0.56c1.346-0.373,2.456-0.888,3.333-1.545c0.876-0.657,1.525-1.44,1.948-2.351
				C1605.491,601.854,1605.703,600.877,1605.703,599.832z"/>
			<path style="fill:#ABDDDA;" d="M1690.701,551.739v43.032c0,3.762-0.657,7.083-1.972,9.964c-1.314,2.881-3.13,5.292-5.445,7.232
				c-2.316,1.941-5.077,3.403-8.285,4.388c-3.208,0.985-6.704,1.478-10.49,1.478c-3.818,0-7.331-0.493-10.538-1.478
				c-3.208-0.985-5.97-2.447-8.285-4.388c-2.316-1.94-4.123-4.351-5.422-7.232c-1.299-2.881-1.947-6.202-1.947-9.964v-43.032h14.082
				v43.032c0,4.27,1.071,7.382,3.215,9.337c2.144,1.956,5.108,2.933,8.896,2.933c3.817,0,6.782-0.977,8.895-2.933
				c2.112-1.955,3.169-5.067,3.169-9.337v-43.032H1690.701z"/>
			<path style="fill:#ABDDDA;" d="M1737.161,593.07h-11.218v23.867h-14.082v-65.198h25.395c3.942,0,7.479,0.425,10.608,1.276
				c3.128,0.851,5.773,2.105,7.932,3.761c2.16,1.657,3.818,3.71,4.977,6.158c1.157,2.448,1.736,5.284,1.736,8.508
				c0,2.389-0.282,4.53-0.846,6.426c-0.562,1.896-1.377,3.582-2.439,5.06c-1.065,1.478-2.348,2.77-3.849,3.874
				c-1.503,1.105-3.193,2.06-5.07,2.866l14.786,26.643v0.627h-15.114L1737.161,593.07z M1725.943,582.189h11.359
				c1.846,0,3.465-0.231,4.857-0.694c1.393-0.462,2.551-1.119,3.474-1.97c0.923-0.851,1.62-1.865,2.089-3.045
				c0.47-1.179,0.705-2.5,0.705-3.963c0-3.074-0.916-5.492-2.747-7.254c-1.83-1.761-4.64-2.642-8.425-2.642h-11.313V582.189z"/>
			<path style="fill:#ABDDDA;" d="M1821.409,603.504h-24.69l-4.694,13.434h-14.973l25.44-65.198h13.049l25.582,65.198h-14.974
				L1821.409,603.504z M1800.521,592.622h17.086l-8.591-24.404L1800.521,592.622z"/>
			<path style="fill:#ABDDDA;" d="M1912.696,616.938h-14.082l-27.413-42.898v42.898h-14.081v-65.198h14.081l27.46,42.988v-42.988
				h14.035V616.938z"/>
			<path style="fill:#ABDDDA;" d="M1988.26,595.22c-0.251,3.313-1.033,6.358-2.347,9.135c-1.314,2.776-3.13,5.157-5.446,7.143
				c-2.316,1.986-5.123,3.538-8.425,4.657c-3.302,1.12-7.064,1.68-11.289,1.68c-4.382,0-8.316-0.725-11.806-2.172
				c-3.489-1.448-6.446-3.53-8.871-6.247c-2.426-2.716-4.288-6.007-5.586-9.874c-1.299-3.866-1.948-8.202-1.948-13.009v-4.298
				c0-4.806,0.673-9.15,2.02-13.031c1.345-3.881,3.245-7.18,5.703-9.897c2.455-2.716,5.437-4.806,8.941-6.269
				c3.504-1.462,7.417-2.194,11.734-2.194c4.256,0,8.019,0.575,11.289,1.724c3.27,1.149,6.047,2.747,8.331,4.791
				c2.285,2.045,4.068,4.478,5.353,7.3c1.282,2.821,2.096,5.888,2.44,9.202h-14.082c-0.157-1.94-0.508-3.657-1.056-5.15
				c-0.549-1.493-1.338-2.746-2.371-3.762c-1.032-1.015-2.363-1.783-3.989-2.306c-1.628-0.522-3.6-0.784-5.915-0.784
				c-4.757,0-8.301,1.65-10.631,4.949c-2.332,3.299-3.497,8.411-3.497,15.337v4.388c0,3.374,0.257,6.329,0.773,8.867
				s1.33,4.657,2.441,6.359c1.11,1.701,2.551,2.978,4.318,3.828c1.768,0.851,3.903,1.276,6.407,1.276
				c2.222,0,4.138-0.238,5.75-0.716c1.611-0.477,2.957-1.202,4.037-2.172c1.079-0.97,1.916-2.187,2.512-3.649
				c0.593-1.462,0.969-3.164,1.126-5.105H1988.26z"/>
			<path style="fill:#ABDDDA;" d="M2048.239,588.682h-27.037v17.464h31.73v10.792h-45.813v-65.198h45.719v10.881h-31.637v15.538
				h27.037V588.682z"/>
		</g>
		<g>
			<path style="fill:#F99746;" d="M1793.076,1670.109c-15.73,5.098-31.078,7.759-43.145,6.754
				c-18.394-1.533-28.751-11.17-29.16-27.14c-0.33-12.669,4.933-23.766,15.239-32.763c-0.099-0.863-0.182-1.729-0.246-2.597
				c-0.677-8.933,1.23-14.869,5.671-17.64c7.184-4.477,17.852,1.648,18.302,1.91l-2.386,4.08c-2.391-1.392-9.493-4.453-13.422-1.981
				c-3.386,2.122-3.794,7.967-3.496,12.716c8.389-6.067,19.345-11.026,32.703-14.634c9.874-2.683,20.872-4.458,30.813-5.265
				c0.053-1.113,0.145-2.109,0.266-2.921c0.324-2.193,1.087-4.759,3.241-5.272c0.817-0.181,2.401-0.16,3.811,1.992
				c0.902,1.379,1.361,3.363,1.448,5.737c3.424-0.078,6.605-0.017,9.423,0.189c0.026-0.061,0.052-0.12,0.078-0.181
				c-0.687-5.6-0.204-12.192,0.728-16.451c1.195-5.47,3.157-8.235,5.909-8.503c1.651-0.15,3.086,0.735,3.744,2.316
				c1.54,3.707-1.346,13.727-5.524,23.34c0.002,0.016,0.005,0.034,0.011,0.052c3.916,0.661,6.575,1.745,7.412,3.262
				c0.631,1.138,0.71,2.899-0.953,4.431c-3.162,2.913-5.688,2.183-6.91,1.482c-1.032-0.593-1.866-1.6-2.529-2.897
				c-3.163,6.252-6.605,11.6-9.313,13.863c-2.491,2.097-4.678,1.257-5.498,0.799c-0.427-0.24-0.826-0.563-1.195-0.955
				c-1.076,2.625-2.293,5.156-3.598,7.444c-4.941,8.675-10.507,13.139-16.096,12.87c-2.288-0.105-4.315-1.017-6.028-2.669
				c-3.091,6.694-6.979,13.062-10.835,17.822c-3.93,4.842-8.937,6.62-14.113,5.003c-9.164-2.863-17.453-16.121-20.558-31.829
				c-7.831,7.658-11.645,16.73-11.379,27.128c0.353,13.622,8.708,21.208,24.832,22.553c40.696,3.388,112.056-34.449,117.465-62.291
				l0,0C1863.389,1632.504,1829.529,1658.298,1793.076,1670.109z M1741.02,1618.85c2.479,16.572,10.775,28.745,17.814,30.945
				c3.302,1.031,6.343-0.142,9.034-3.467c4.585-5.656,8.538-12.64,11.376-19.446c-0.815-1.76-1.475-3.822-1.965-6.165
				c-1.14-5.463-1.325-12.958,0.021-18.101c-7.603,1.878-15.221,4.417-22.276,7.754
				C1749.62,1612.927,1744.947,1615.756,1741.02,1618.85z M1784.465,1626.6c1.01,1.541,2.364,2.748,4.156,2.83
				c3.575,0.15,7.878-3.661,11.778-10.492c2.03-3.561,3.653-7.361,4.873-11.009c-0.785-2.962-1.191-6.422-1.327-9.604
				c-5.237,0.42-10.946,1.129-16.824,2.192C1790.185,1606.481,1788.411,1616.561,1784.465,1626.6z M1810.201,1608.013
				c0.735,2.222,1.396,2.651,1.403,2.655c2.637-2.268,5.654-7.183,8.399-12.778c-2.242-0.085-4.771-0.097-7.524-0.025
				C1812.099,1601.02,1811.302,1604.508,1810.201,1608.013z M1782.472,1601.942c-1.198,2.506-2.064,10.529-0.603,17.665
				C1784.24,1611.779,1784.726,1605.008,1782.472,1601.942z M1828.984,1598.927c0.01,0.01,0.017,0.001,0.025,0.008
				C1828.999,1598.932,1828.992,1598.931,1828.984,1598.927z M1828.286,1574.684c-0.418,1.213-0.815,2.929-1.12,4.944
				C1827.724,1577.686,1828.112,1575.991,1828.286,1574.684z"/>
		</g>
		<g>
			<g>
				<path style="fill:#ABDDDA;" d="M1556.457,971.638h-179.359v-179.36h179.359V971.638z M1385.545,963.19h162.464V800.726h-162.464
					V963.19z"/>
			</g>
			<g>
				<path style="fill:#F99746;" d="M1471.233,935.587c-3.761,0-7.348-1.674-9.766-4.598l-55.347-66.954
					c-4.459-5.394-3.701-13.381,1.693-17.841c5.392-4.459,13.38-3.702,17.84,1.693l43.895,53.099l79.406-133.275
					c3.583-6.013,11.36-7.98,17.373-4.4c6.012,3.582,7.981,11.36,4.4,17.373l-88.607,148.716c-2.109,3.541-5.807,5.833-9.915,6.149
					C1471.88,935.576,1471.556,935.587,1471.233,935.587z"/>
			</g>
		</g>
		<g>
			<g>
				<path style="fill:#ABDDDA;" d="M1556.457,1252.082h-179.359v-179.36h179.359V1252.082z M1385.545,1243.634h162.464V1081.17
					h-162.464V1243.634z"/>
			</g>
			<g>
				<path style="fill:#F99746;" d="M1471.233,1214.485c-3.761,0-7.348-1.674-9.766-4.598l-55.347-66.954
					c-4.459-5.394-3.701-13.381,1.693-17.84c5.392-4.459,13.38-3.702,17.84,1.693l43.895,53.098l79.406-133.274
					c3.583-6.014,11.36-7.98,17.373-4.4c6.012,3.582,7.981,11.36,4.4,17.372l-88.607,148.717c-2.109,3.541-5.807,5.833-9.915,6.148
					C1471.88,1214.474,1471.556,1214.485,1471.233,1214.485z"/>
			</g>
		</g>
		<g>
			<g>
				<path style="fill:#ABDDDA;" d="M1556.457,1526.717h-179.359v-179.359h179.359V1526.717z M1385.545,1518.27h162.464v-162.465
					h-162.464V1518.27z"/>
			</g>
			<g>
				<path style="fill:#F99746;" d="M1471.233,1486.481c-3.761,0-7.348-1.674-9.766-4.598l-55.347-66.954
					c-4.459-5.395-3.701-13.381,1.693-17.84c5.392-4.46,13.38-3.702,17.84,1.692l43.895,53.099l79.406-133.275
					c3.583-6.013,11.36-7.979,17.373-4.399c6.012,3.582,7.981,11.359,4.4,17.372l-88.607,148.717
					c-2.109,3.54-5.807,5.832-9.915,6.148C1471.88,1486.47,1471.556,1486.481,1471.233,1486.481z"/>
			</g>
		</g>
		<g style="opacity:0.5;">
			<g>
				<rect x="1677.334" y="834.128" style="fill:#ABDDDA;" width="233.877" height="17.499"/>
				<rect x="2056.78" y="834.128" style="fill:#ABDDDA;" width="53.157" height="17.499"/>
			</g>
			<g>
				<rect x="1677.334" y="912.289" style="fill:#ABDDDA;" width="233.877" height="17.499"/>
				<rect x="2030.688" y="912.289" style="fill:#ABDDDA;" width="79.249" height="17.499"/>
			</g>
			<g>
				<rect x="2044.798" y="873.208" style="fill:#ABDDDA;" width="65.14" height="17.5"/>
				<rect x="1850.121" y="873.208" style="fill:#ABDDDA;" width="65.14" height="17.5"/>
				<rect x="1677.334" y="873.208" style="fill:#ABDDDA;" width="144.737" height="17.5"/>
			</g>
		</g>
		<g style="opacity:0.5;">
			<g>
				<rect x="1677.334" y="1103.476" style="fill:#ABDDDA;" width="224.95" height="17.499"/>
			</g>
			<g>
				<rect x="1677.334" y="1181.636" style="fill:#ABDDDA;" width="233.877" height="17.499"/>
			</g>
			<g>
				<rect x="1838.842" y="1142.556" style="fill:#ABDDDA;" width="60.526" height="17.499"/>
				<rect x="1677.334" y="1142.556" style="fill:#ABDDDA;" width="144.737" height="17.499"/>
			</g>
		</g>
		<g style="opacity:0.5;">
			<g>
				<rect x="1677.334" y="1380.458" style="fill:#ABDDDA;" width="233.877" height="17.499"/>
			</g>
			<g>
				<rect x="1677.334" y="1458.618" style="fill:#ABDDDA;" width="233.877" height="17.499"/>
			</g>
			<g>
				<rect x="1838.842" y="1419.538" style="fill:#ABDDDA;" width="101.711" height="17.499"/>
				<rect x="1677.334" y="1419.538" style="fill:#ABDDDA;" width="144.737" height="17.499"/>
			</g>
		</g>
		<g>
			<rect x="1377.098" y="1622.6" style="fill:#ABDDDA;" width="122.695" height="12.418"/>
			<rect x="1528.211" y="1622.6" style="fill:#ABDDDA;" width="122.696" height="12.418"/>
			<rect x="1377.098" y="1650.157" style="fill:#ABDDDA;" width="170.165" height="12.419"/>
		</g>
	</g>
	<g>
		<g>
			<g>
				<g>
					<path style="fill:#FCECDB;" d="M944.535,972.298v428.895c0,26.317-21.529,47.858-47.858,47.858H641.75
						c-6.82,0-13.315-1.443-19.208-4.053c-16.827-7.434-28.65-24.309-28.65-43.806V972.298c0-26.329,21.542-47.858,47.858-47.858
						h254.927C923.006,924.44,944.535,945.969,944.535,972.298z"/>
					<path style="fill:#F7E0CB;" d="M831.609,1085.724c-26.945-10.117-40.57-40.151-30.458-67.082
						c10.112-26.93,40.137-40.574,67.082-30.457c26.93,10.112,40.569,40.151,30.457,67.082
						C888.579,1082.197,858.539,1095.836,831.609,1085.724z"/>
					<path style="fill:#EFCBAB;" d="M898.69,1055.267l-97.539-36.625c10.112-26.93,40.137-40.574,67.082-30.457
						C895.164,998.296,908.803,1028.336,898.69,1055.267z"/>
					<path style="fill:#F7E0CB;" d="M655.563,1077.31c-22.295-18.201-25.602-51.016-7.411-73.299
						c18.192-22.284,51.003-25.612,73.299-7.412c22.284,18.192,25.602,51.015,7.411,73.299
						C710.67,1092.182,677.847,1095.501,655.563,1077.31z"/>
					<path style="fill:#EFCBAB;" d="M728.861,1069.898l-80.71-65.888c18.192-22.284,51.003-25.612,73.299-7.412
						C743.734,1014.791,747.053,1047.614,728.861,1069.898z"/>
					<path style="fill:#F7E0CB;" d="M831.609,1403.509c-26.945-10.117-40.57-40.151-30.458-67.081
						c10.112-26.931,40.137-40.575,67.082-30.458c26.93,10.112,40.569,40.151,30.457,67.082
						C888.579,1399.982,858.539,1413.621,831.609,1403.509z"/>
					<path style="fill:#EFCBAB;" d="M898.69,1376.592l-97.539-36.625c10.112-26.93,40.137-40.574,67.082-30.457
						C895.164,1319.622,908.803,1349.661,898.69,1376.592z"/>
					
						<ellipse transform="matrix(0.9193 -0.3936 0.3936 0.9193 -477.6407 380.3365)" style="fill:#F7E0CB;" cx="688.506" cy="1354.74" rx="52.095" ry="52.094"/>
					<path style="fill:#EFCBAB;" d="M728.861,1391.224l-80.71-65.888c18.192-22.284,51.003-25.612,73.299-7.411
						C743.734,1336.116,747.053,1368.939,728.861,1391.224z"/>
					<g>
						<path style="fill:#F7E0CB;" d="M872.231,1248.838c-26.008,12.326-57.066,1.229-69.386-24.766
							c-12.32-25.994-1.244-57.059,24.765-69.385c25.995-12.32,57.066-1.23,69.386,24.765
							C909.316,1205.446,898.226,1236.518,872.231,1248.838z"/>
						<path style="fill:#EFCBAB;" d="M896.996,1179.452l-94.15,44.62c-12.32-25.994-1.244-57.059,24.765-69.385
							C853.605,1142.367,884.676,1153.457,896.996,1179.452z"/>
					</g>
					<path style="fill:#F7E0CB;" d="M640.142,1182.404c10.695-26.721,41.015-39.695,67.722-29.006
						c26.707,10.688,39.701,41.001,29.007,67.722c-10.69,26.706-41.015,39.695-67.722,29.007
						C642.442,1239.438,629.453,1209.111,640.142,1182.404z"/>
					<path style="fill:#EFCBAB;" d="M669.149,1250.127l38.715-96.729c26.707,10.688,39.701,41.001,29.007,67.722
						C726.182,1247.826,695.856,1260.815,669.149,1250.127z"/>
				</g>
			</g>
			<path style="opacity:0.5;fill:#EFCBAB;" d="M944.535,1030.994v373.221c0,24.655-19.7,44.837-43.792,44.837h-233.27
				c-6.24,0-12.184-1.353-17.577-3.798v-362.595c0-14.829,6.185-28.25,16.047-37.692c3.643-3.493,7.792-6.446,12.327-8.722
				c6.681-3.358,14.175-5.251,22.089-5.251H944.535z"/>
		</g>
		<g>
			<g>
				<path style="fill:#FCECDB;" d="M658.223,1510.159v-428.897c0-26.322,21.536-47.858,47.858-47.858H961.01
					c26.322,0,47.858,21.536,47.858,47.858v428.897c0,26.322-21.536,47.858-47.858,47.858H706.081
					C679.759,1558.018,658.223,1536.481,658.223,1510.159z"/>
				<path style="fill:#F7E0CB;" d="M895.94,1194.691c-26.945-10.117-40.57-40.15-30.458-67.081
					c10.112-26.931,40.138-40.575,67.082-30.458c26.931,10.112,40.57,40.151,30.458,67.082
					C952.91,1191.165,922.871,1204.804,895.94,1194.691z"/>
				<path style="fill:#EFCBAB;" d="M963.022,1164.234l-97.54-36.624c10.112-26.931,40.138-40.575,67.082-30.458
					C959.495,1107.265,973.134,1137.304,963.022,1164.234z"/>
				<path style="fill:#F7E0CB;" d="M719.894,1186.277c-22.295-18.201-25.602-51.016-7.411-73.299
					c18.192-22.284,51.003-25.612,73.299-7.411c22.284,18.191,25.603,51.015,7.411,73.299
					C775.001,1201.15,742.178,1204.469,719.894,1186.277z"/>
				<path style="fill:#EFCBAB;" d="M793.193,1178.866l-80.71-65.888c18.192-22.284,51.003-25.612,73.299-7.411
					C808.066,1123.759,811.385,1156.582,793.193,1178.866z"/>
				<path style="fill:#F7E0CB;" d="M895.94,1512.477c-26.945-10.117-40.57-40.15-30.458-67.081
					c10.112-26.931,40.138-40.575,67.082-30.458c26.931,10.112,40.57,40.151,30.458,67.082
					C952.91,1508.95,922.871,1522.589,895.94,1512.477z"/>
				<path style="fill:#EFCBAB;" d="M963.022,1485.56l-97.54-36.624c10.112-26.931,40.138-40.575,67.082-30.458
					C959.495,1428.59,973.134,1458.629,963.022,1485.56z"/>
				<path style="fill:#F7E0CB;" d="M719.894,1504.063c-22.295-18.201-25.602-51.016-7.411-73.299
					c18.192-22.284,51.003-25.612,73.299-7.411c22.284,18.191,25.603,51.015,7.411,73.299
					C775.001,1518.936,742.178,1522.254,719.894,1504.063z"/>
				<path style="fill:#EFCBAB;" d="M793.193,1500.191l-80.71-65.888c18.192-22.284,51.003-25.612,73.299-7.411
					C808.066,1445.084,811.385,1477.907,793.193,1500.191z"/>
				<g>
					<path style="fill:#F7E0CB;" d="M936.563,1357.806c-26.008,12.326-57.066,1.229-69.386-24.765
						c-12.32-25.995-1.244-57.06,24.765-69.386c25.995-12.32,57.066-1.23,69.386,24.765
						C973.647,1314.414,962.558,1345.485,936.563,1357.806z"/>
					<path style="fill:#EFCBAB;" d="M961.328,1288.42l-94.15,44.621c-12.32-25.995-1.244-57.06,24.765-69.386
						C917.936,1251.335,949.008,1262.425,961.328,1288.42z"/>
				</g>
				<path style="fill:#F7E0CB;" d="M704.474,1291.373c10.695-26.721,41.015-39.696,67.722-29.007
					c26.707,10.688,39.702,41.001,29.007,67.722c-10.689,26.707-41.015,39.695-67.722,29.007
					C706.774,1348.405,693.785,1318.079,704.474,1291.373z"/>
				<path style="fill:#EFCBAB;" d="M733.48,1359.095l38.715-96.729c26.707,10.688,39.702,41.001,29.007,67.722
					C790.513,1356.795,760.187,1369.783,733.48,1359.095z"/>
			</g>
		</g>
		<g>
			<rect x="569.019" y="1204.483" style="fill:#EF7E29;" width="400.39" height="597.533"/>
			<rect x="624.791" y="1204.48" style="fill:#F99746;" width="400.39" height="597.536"/>
			<polygon style="fill:#D8661A;" points="624.791,1239.156 605.602,1268.997 569.019,1268.997 569.019,1204.483 624.787,1204.483 
							"/>
			<polygon style="fill:#F99746;" points="590.586,1251.557 534.818,1251.557 569.019,1204.483 624.787,1204.483 			"/>
			<polygon style="opacity:0.5;fill:#EFCBAB;" points="831.296,1803.922 624.791,1803.922 624.791,1231.711 831.296,1251.557 			"/>
			<polygon style="fill:#EF7E29;" points="1025.181,1251.557 992.694,1268.997 644.091,1268.997 624.791,1239.156 624.791,1204.48 
							"/>
			<polygon style="fill:#F99746;" points="1053.461,1251.557 653.072,1251.557 624.787,1204.483 1025.177,1204.483 			"/>
		</g>
	</g>
	<g>
		<g>
			<g>
				<path style="fill:#FCECDB;" d="M895.048,1801.201H464.352c-26.663,0-48.479-21.816-48.479-48.479v-260.766
					c0-26.663,21.815-48.479,48.479-48.479h430.696c26.664,0,48.479,21.816,48.479,48.479v260.766
					C943.527,1779.385,921.712,1801.201,895.048,1801.201z"/>
				<path style="fill:#F7E0CB;" d="M578.096,1558.685c-10.176,27.488-40.384,41.389-67.47,31.072
					c-27.087-10.316-40.81-40.947-30.634-68.437c10.171-27.474,40.384-41.388,67.471-31.072
					C574.549,1500.564,588.267,1531.21,578.096,1558.685z"/>
				<path style="fill:#EFCBAB;" d="M547.462,1490.248l-36.836,99.509c-27.087-10.316-40.81-40.947-30.634-68.437
					C490.163,1493.847,520.376,1479.933,547.462,1490.248z"/>
				<path style="fill:#F7E0CB;" d="M569.633,1738.284c-18.307,22.746-51.311,26.12-73.724,7.562
					c-22.413-18.56-25.76-52.033-7.454-74.779c18.297-22.733,51.31-26.119,73.724-7.561
					C584.592,1682.064,587.93,1715.551,569.633,1738.284z"/>
				<path style="fill:#EFCBAB;" d="M562.179,1663.506l-66.27,82.34c-22.413-18.56-25.76-52.033-7.454-74.779
					C506.752,1648.333,539.766,1644.947,562.179,1663.506z"/>
				<path style="fill:#F7E0CB;" d="M897.723,1558.685c-10.176,27.488-40.384,41.389-67.471,31.072
					c-27.086-10.316-40.81-40.947-30.634-68.437c10.171-27.474,40.384-41.388,67.471-31.072
					C894.176,1500.564,907.894,1531.21,897.723,1558.685z"/>
				<path style="fill:#EFCBAB;" d="M867.101,1490.248l-36.836,99.509c-27.086-10.316-40.81-40.947-30.634-68.437
					C809.801,1493.847,840.015,1479.933,867.101,1490.248z"/>
				<path style="fill:#F7E0CB;" d="M889.256,1738.283c-17.674,21.965-49.055,25.866-71.375,9.375
					c-0.799-0.564-1.573-1.178-2.347-1.816c-22.417-18.553-25.755-52.026-7.452-74.776c18.291-22.737,51.305-26.124,73.721-7.559
					c0.762,0.638,1.5,1.276,2.226,1.951C904.426,1684.33,906.931,1716.319,889.256,1738.283z"/>
				<path style="fill:#EFCBAB;" d="M884.03,1665.458l-66.148,82.2c-0.799-0.564-1.573-1.178-2.347-1.816
					c-22.417-18.553-25.755-52.026-7.452-74.776c18.291-22.737,51.305-26.124,73.721-7.559
					C882.566,1664.145,883.305,1664.783,884.03,1665.458z"/>
				<g>
					<path style="fill:#F7E0CB;" d="M742.155,1517.242c12.397,26.533,1.237,58.217-24.908,70.786
						c-26.146,12.568-57.39,1.269-69.788-25.265c-12.391-26.52-1.237-58.218,24.908-70.787
						C698.513,1479.408,729.764,1490.722,742.155,1517.242z"/>
					<path style="fill:#EFCBAB;" d="M672.367,1491.977l44.88,96.052c-26.146,12.568-57.39,1.269-69.788-25.265
						C635.068,1536.244,646.222,1504.546,672.367,1491.977z"/>
				</g>
				<path style="fill:#F7E0CB;" d="M675.337,1754.017c-26.875-10.911-39.926-41.844-29.175-69.089
					c10.751-27.246,41.239-40.504,68.114-29.593c26.861,10.905,39.926,41.843,29.175,69.089
					C732.701,1751.67,702.199,1764.921,675.337,1754.017z"/>
				<path style="fill:#EFCBAB;" d="M743.452,1724.424l-97.289-39.496c10.751-27.246,41.239-40.504,68.114-29.593
					C741.138,1666.24,754.203,1697.178,743.452,1724.424z"/>
			</g>
		</g>
	</g>
	<g>
		<g>
			<path style="fill:#2B478B;" d="M1523.01,1759.136c0,11.777-4.82,22.479-12.59,30.248c-7.769,7.77-18.471,12.591-30.248,12.591
				h-202.285c-23.554,0-42.824-19.285-42.824-42.839c0-11.776,4.821-22.479,12.576-30.248c7.769-7.755,18.471-12.576,30.248-12.576
				h202.285C1503.726,1716.312,1523.01,1735.582,1523.01,1759.136z"/>
			<path style="fill:#699FF0;" d="M1418.659,1759.136c0,11.777-4.821,22.479-12.576,30.248c-7.769,7.77-18.471,12.591-30.248,12.591
				h-97.948c-23.554,0-42.824-19.285-42.824-42.839c0-11.776,4.821-22.479,12.576-30.248c7.769-7.755,18.471-12.576,30.248-12.576
				h97.948C1399.389,1716.312,1418.659,1735.582,1418.659,1759.136z"/>
			<path style="opacity:0.4;fill:#E9F3FE;" d="M1483.599,1739.318h-192.95c-3.339,0-6.07-2.731-6.07-6.07v-1.368
				c0-3.339,2.731-6.07,6.07-6.07h192.95c3.338,0,6.07,2.731,6.07,6.07v1.368
				C1489.669,1736.587,1486.937,1739.318,1483.599,1739.318z"/>
		</g>
		<g>
			<path style="fill:#EF7E29;" d="M1350.395,1637.809c5.594,11.162,6.108,23.596,2.435,34.65
				c-3.674,11.054-11.527,20.706-22.69,26.3l-191.729,96.081c-22.325,11.188-49.749,2.063-60.937-20.263
				c-5.594-11.162-6.108-23.597-2.448-34.644c3.68-11.039,11.534-20.692,22.696-26.286l191.729-96.081
				C1311.776,1606.379,1339.207,1615.483,1350.395,1637.809z"/>
			<path style="fill:#F99746;" d="M1251.488,1687.373c5.594,11.163,6.108,23.597,2.448,34.644
				c-3.673,11.054-11.527,20.706-22.69,26.3l-92.836,46.523c-22.325,11.188-49.749,2.063-60.937-20.263
				c-5.594-11.162-6.108-23.597-2.448-34.644c3.68-11.039,11.534-20.692,22.696-26.286l92.837-46.523
				C1212.883,1655.937,1240.301,1665.049,1251.488,1687.373z"/>
			<path style="opacity:0.5;fill:#FFE2CC;" d="M1303.627,1637.745l-182.882,91.647c-3.165,1.586-7.051,0.294-8.637-2.87l-0.65-1.298
				c-1.585-3.164-0.294-7.051,2.871-8.637l182.882-91.646c3.165-1.586,7.051-0.295,8.637,2.87l0.65,1.297
				C1308.083,1632.273,1306.792,1636.159,1303.627,1637.745z"/>
		</g>
	</g>
	<g>
		<g>
			<path style="fill:#FFB27D;" d="M2188.315,1220.234c0,0,9.096,28.012,8.314,34.417c-0.782,6.406-6.492,28.296-10.571,33.899
				c-4.078,5.604-6.09-22.819-9.318-27.096c-3.228-4.276-0.662,10.702-2.939,12.088c-2.276,1.387-7.02-11.018-9.06-15.394
				s4.988-20.514,5.007-31.761C2169.768,1215.143,2188.315,1220.234,2188.315,1220.234z"/>
			<path style="fill:#233862;" d="M1974.412,997.731c-2.52-32.121,32.371-54.142,59.921-37.437c0.565,0.343,1.125,0.692,1.679,1.049
				c41.246,26.548,130.244,150.427,136.365,162.837c6.121,12.409,24.204,111.136,24.204,111.136s-22.341,8.173-32.786-0.307
				c0,0-36.233-93.629-41.59-98.31c-5.356-4.68-144.918-82.988-146.107-112.346C1975.783,1016.592,1975.16,1007.26,1974.412,997.731
				z"/>
		</g>
		<g>
			
				<rect x="1690.436" y="901.048" transform="matrix(-0.3288 -0.9444 0.9444 -0.3288 1332.1686 2934.499)" style="fill:#F99746;" width="36.897" height="185.607"/>
			<polygon style="fill:#F9DDBF;" points="1580.489,1038.555 1627.307,1041.789 1615.175,1006.943 			"/>
			<path style="fill:#F9DDBF;" d="M1814.864,950.379l3.835,11.017c2.36,6.776-1.221,14.183-7.997,16.542l-8.108,2.823
				l-12.132-34.846l8.817-3.07C1805.664,940.621,1812.642,943.995,1814.864,950.379z"/>
		</g>
		<g>
			<path style="fill:#233862;" d="M2223.457,1722.816c0,0,16.63,15.177,13.385,25.96c-3.244,10.783-18.252,17.973-20.279,31.152
				c-2.028,13.18-10.141,20.368-17.441,20.368s-34.808,0-34.808,0s-5.374-9.274,7.605-12.07
				c12.979-2.795,17.873-18.283,17.062-32.66c-0.811-14.378,1.217-33.549,1.217-33.549l27.582-6.39L2223.457,1722.816z"/>
			<path style="fill:#233862;" d="M2019.438,1762.069c0,0,2.984,34.539-4.316,38.133l-93.435-0.191c0,0,0-10.783,15.008-13.18
				c15.007-2.396,41.372-11.183,45.833-30.752C1986.989,1736.509,2019.438,1762.069,2019.438,1762.069z"/>
			<path style="fill:#F99746;" d="M1940.553,1274.182c0,0,4.929,60.542,10.721,133.317c7.873,98.859,17.34,220.291,18.276,243.296
				c1.618,39.945,8.116,103.843,8.116,103.843s15.405,15.181,46.239,8.782c0,0,27.476-91.215,35.324-187.725
				c0.122-1.582,0.243-3.176,0.365-4.77c7.301-98.248,18.653-305.131,18.653-305.131L1940.553,1274.182z"/>
			<path style="fill:#EF7E29;" d="M1940.553,1274.182c0,0,4.929,60.542,10.721,133.317l107.956,168.196
				c0.122-1.582,0.243-3.176,0.365-4.77c7.301-98.248,18.653-305.131,18.653-305.131L1940.553,1274.182z"/>
			<path style="fill:#F99746;" d="M1963.059,1281.371c0,0,88.827,219.261,147.234,322.301
				c58.407,103.041,76.66,131.796,76.66,131.796s33.462-13.18,36.504-22.165c0,0-22.335-198.925-61.449-247.417
				c-22.102-27.401-48.064-109.631-49.281-138.386c-1.217-28.756-7.909-85.668-7.909-85.668L1963.059,1281.371z"/>
		</g>
		<path style="fill:#FFB27D;" d="M2039.651,952.468c0,0-59.515,30.186-94.371,20.115c0,0,8.314-10.926,23.078-19.227
			c-1.337-6.93-2.39-12.945-3.024-18.052c-1.699-11.778-1.832-18.47-1.832-18.47l22.821-18.694l21.639-17.886
			C2007.203,929.356,2039.651,952.468,2039.651,952.468z"/>
		<path style="fill:#2B478B;" d="M2098.766,1259.183c-24.028,14.543-46.777,25.477-73.399,31.62
			c-31.402,7.445-69.997,5.249-82.91,7.217c-1.328,0.181-2.583-0.17-3.766-0.954c-1.014-0.519-6.71-38.823-12.418-87.17
			c-0.254-1.942-0.52-3.91-0.628-5.877l-0.085-0.652c-2.22-18.899-4.163-38.751-5.853-58.652
			c-1.376-15.483-2.511-30.799-3.295-45.184c-0.99-17.994-1.399-34.528-0.99-48.129c0.182-6.216,0.544-11.804,1.099-16.654
			c3.403-28.24,16.872-48.419,29.556-63.444l10.523-11.972c12.201,0.772,24.656-1.533,36.411-9.293
			c12.853-8.46,26.719-17.56,29.338-16.039c19.695,10.777,35.734,38.704,47.188,75.584c6.565,21.229,11.61,45.317,14.832,70.829
			c1.038,7.917,1.919,16.039,2.595,24.125c0.133,1.497,0.241,2.993,0.361,4.466c1.545,22.109,4.067,42.83,6.867,61.331
			c3.766,24.958,8.05,45.86,11.079,60.584c1.521,7.494,2.68,13.287,3.367,17.438C2109.253,1251.979,2102,1257.167,2098.766,1259.183
			z"/>
		<path style="fill:#ED985F;" d="M2008.733,899.008c0,0-14.64,27.983-43.399,36.296c-1.699-11.778-1.832-18.47-1.832-18.47
			l22.821-18.694L2008.733,899.008z"/>
		<path style="fill:#FFB27D;" d="M1952.915,916.246c0,0,57.51,8.239,62.191-27.108c4.683-35.347,15.258-58.089-21.263-64.845
			c-36.521-6.755-45.456,5.819-49.933,17.245C1939.435,852.963,1938.075,913.191,1952.915,916.246z"/>
		<path style="fill:#2C3A64;" d="M2034.563,819.265c0.51-0.607,1.699-1.112,4.368-1.31c0,0-2.161-1.292-5.018-1.307
			c-0.633-3.704-2.739-10.238-9.163-11.71c0,0,3.471,1.763,3.999,5.703c-7.555-7.458-23.53-12.678-67.394-8.338
			c-57.808,5.719-37.99,42.41-30.407,46.681c7.584,4.271,26.211-8.219,40.198-7.388c13.987,0.831,17.044,20.958,21.836,23.634
			s2.833-2.185,9.186-5.209c6.352-3.025,7.172,7.585,5.458,14.528c-1.715,6.943,7.274,15.878,7.274,15.878s0,0,8.71-9.762
			c8.71-9.762,16.293-50.529,12.075-59.104C2035.313,820.803,2034.943,820.036,2034.563,819.265z"/>
		<path style="fill:#233862;" d="M2016.303,1054.551c0,0-48.491,36.894-99.891,44.979c-0.99-17.994-1.399-34.528-0.99-48.129
			L2016.303,1054.551z"/>
		<g>
			<path style="fill:#FFB27D;" d="M1718.519,1006.943c-0.765-0.821-10.651-33.876-27.748-31.465
				c-11.156,1.574-29.391,8.031-24.549,22.729c1.904,5.781,35.896,25.686,35.896,25.686L1718.519,1006.943z"/>
			<path style="fill:#2B478B;" d="M2022.299,983.263c27.649,16.541,25.406,57.738-4.164,70.531
				c-0.607,0.263-1.216,0.517-1.828,0.762c-45.523,18.262-198.057,19.112-211.719,16.919c-13.662-2.192-104.63-44.604-104.63-44.604
				s6.269-22.948,19.23-26.556c0,0,97.319,24.661,104.236,23.003c6.918-1.657,151.563-70.119,176.19-54.093
				C2006.127,973.462,2014.097,978.356,2022.299,983.263z"/>
		</g>
	</g>
	<g>
		<path style="fill:#EF7E29;" d="M2760.358,1768.729c0,8.823-3.611,16.842-9.433,22.662c-5.82,5.82-13.839,9.433-22.662,9.433
			h-151.553c-17.646,0-32.084-14.448-32.084-32.095c0-8.823,3.612-16.842,9.422-22.662c5.82-5.81,13.839-9.422,22.662-9.422h151.553
			C2745.91,1736.646,2760.358,1751.082,2760.358,1768.729z"/>
		<path style="fill:#F99746;" d="M2682.178,1768.729c0,8.823-3.612,16.842-9.422,22.662c-5.82,5.82-13.839,9.433-22.662,9.433
			h-73.383c-17.646,0-32.084-14.448-32.084-32.095c0-8.823,3.612-16.842,9.422-22.662c5.82-5.81,13.839-9.422,22.662-9.422h73.383
			C2667.74,1736.646,2682.178,1751.082,2682.178,1768.729z"/>
		<path style="opacity:0.5;fill:#FFE2CC;" d="M2730.831,1753.883h-144.56c-2.501,0-4.548-2.047-4.548-4.549v-1.025
			c0-2.501,2.047-4.548,4.548-4.548h144.56c2.501,0,4.548,2.047,4.548,4.548v1.025
			C2735.379,1751.836,2733.332,1753.883,2730.831,1753.883z"/>
	</g>
	<path style="fill:#2E3552;" d="M2977.123,1810.912H257.893c-2.132,0-3.877-1.745-3.877-3.877v-3.635
		c0-2.133,1.745-3.877,3.877-3.877h2719.23c2.133,0,3.877,1.744,3.877,3.877v3.635
		C2981,1809.167,2979.256,1810.912,2977.123,1810.912z"/>
</g>
</svg>
